/* XPM */
static char *speaker[] = {
/* width height num_colors chars_per_pixel */
"    20    20        4            1",
/* colors */
". c None",
"# c #b23612",
"a c #333333",
"b c #000000",
/* pixels */
"....................",
"....................",
"....................",
"....................",
"..........b....b....",
".........bb.....a...",
"........b##...b..a..",
".......b###....b..b.",
".....bb####..b..b.a.",
"bbbbbb#####..b..b..b",
"b##########...b..b.b",
"b#########a...b..b.a",
"a#########b...b..b.a",
"b#########b...b..b.b",
"bbabaa####b..b..b..b",
".....bb###b..b..b.b.",
".......b##b....b..b.",
"........b#b...b..b..",
".........bb.....b...",
"..........b....b...."
};
