/* XPM */
static char *Aegis[] = {
/* width height num_colors chars_per_pixel */
"    30    30        8            1",
/* colors */
". c #000000",
"# c #101010",
"a c #737373",
"b c #848484",
"c c #adadad",
"d c #dedede",
"e c #efefef",
"f c #ffffff",
/* pixels */
"fffffffff..fffffffffffffffffff",
"fffffffff..cffffffffffffffffff",
"ffffffffff.ccfffffffffffffffff",
"fffffffff...cfffffffffffffffff",
"fffffffff...fffcffffffffffffff",
"ffffffff......bbffffffffffffff",
"f..ff.fc....ddafffffffffffffff",
"c..afac.....daffffffffffffffff",
"cc.aafc....bd.cfffffffffffffff",
"fc..afc.....dcccffffffffffffff",
"f........f.cfffffaffffffffffff",
"f.....cc.faa..fffaffffffffffff",
"fffc.c..ffaa....caffffffffffff",
"ffffc.c..caa..ceeeffffffffffff",
"fffffc.ccccc.cceeeffffffffffff",
"ffffff..cccc.cceeeecffffffffff",
"fffffff..cc#c.ceeeeacfffffffff",
"fffffffff.cc#.aeeeeaafffffffff",
"ffffffffff..c#deeee..f..ffffff",
"fffffffffff..cdee.ecfdafccffff",
"ffffffffffffc....eccfdffaacfff",
"fffffffffffffc.....ffffaaaafff",
"ffffffffffffff...c...fffaaacff",
"fffffffffffffff......aaaaaaacf",
"ffffffffffffffffff...........f",
"fffffffffffffffffffffcc.....cf",
"ffffffffffffffffffffffcc...fff",
"ffffffffffffffffffffffffc..fff",
"fffffffffffffffffffffffffc.fff",
"ffffffffffffffffffffffffffffff"
};
