/* XPM */
static char *chemical[] = {
/* width height num_colors chars_per_pixel */
"    33    33      179            2",
/* colors */
".. c #000000",
".# c #010101",
".a c #020202",
".b c #030303",
".c c #040404",
".d c #050505",
".e c #060606",
".f c #080808",
".g c #090909",
".h c #0a0a0a",
".i c #0b0b0b",
".j c #0c0c0c",
".k c #0d0d0d",
".l c #0e0e0e",
".m c #0f0f0f",
".n c #101010",
".o c #111111",
".p c #141414",
".q c #151515",
".r c #161616",
".s c #171717",
".t c #191919",
".u c #1b1b1b",
".v c #1d1d1d",
".w c #1e1e1e",
".x c #1f1f1f",
".y c #202020",
".z c #222222",
".A c #232323",
".B c #242424",
".C c #252525",
".D c #262626",
".E c #272727",
".F c #282828",
".G c #2a2a2a",
".H c #2b2b2b",
".I c #2c2c2c",
".J c #2e2e2e",
".K c #303030",
".L c #313131",
".M c #323232",
".N c #333333",
".O c #353535",
".P c #363636",
".Q c #373737",
".R c #393939",
".S c #3a3a3a",
".T c #3c3c3c",
".U c #3d3d3d",
".V c #3e3e3e",
".W c #404040",
".X c #434343",
".Y c #444444",
".Z c #454545",
".0 c #464646",
".1 c #474747",
".2 c #484848",
".3 c #494949",
".4 c #4a4a4a",
".5 c #4c4c4c",
".6 c #4d4d4d",
".7 c #505050",
".8 c #525252",
".9 c #535353",
"#. c #545454",
"## c #555555",
"#a c #575757",
"#b c #585858",
"#c c #5a5a5a",
"#d c #5b5b5b",
"#e c #606060",
"#f c #616161",
"#g c #626262",
"#h c #646464",
"#i c #656565",
"#j c #666666",
"#k c #686868",
"#l c #696969",
"#m c #6c6c6c",
"#n c #6d6d6d",
"#o c #6f6f6f",
"#p c #707070",
"#q c #727272",
"#r c #737373",
"#s c #747474",
"#t c #757575",
"#u c #767676",
"#v c #787878",
"#w c #797979",
"#x c #7a7a7a",
"#y c #7c7c7c",
"#z c #7d7d7d",
"#A c #7e7e7e",
"#B c #7f7f7f",
"#C c #818181",
"#D c #828282",
"#E c #838383",
"#F c #848484",
"#G c #858585",
"#H c #868686",
"#I c #878787",
"#J c #888888",
"#K c #898989",
"#L c #8b8b8b",
"#M c #8c8c8c",
"#N c #8d8d8d",
"#O c #909090",
"#P c #929292",
"#Q c #959595",
"#R c #979797",
"#S c #9a9a9a",
"#T c #9b9b9b",
"#U c #9c9c9c",
"#V c #9f9f9f",
"#W c #a0a0a0",
"#X c #a2a2a2",
"#Y c #a3a3a3",
"#Z c #a4a4a4",
"#0 c #a5a5a5",
"#1 c #a7a7a7",
"#2 c #a8a8a8",
"#3 c #a9a9a9",
"#4 c #acacac",
"#5 c #adadad",
"#6 c #afafaf",
"#7 c #b0b0b0",
"#8 c #b1b1b1",
"#9 c #b2b2b2",
"a. c #b4b4b4",
"a# c #b5b5b5",
"aa c #b6b6b6",
"ab c #bababa",
"ac c #bcbcbc",
"ad c #c0c0c0",
"ae c #c4c4c4",
"af c #c8c8c8",
"ag c #c9c9c9",
"ah c #cacaca",
"ai c #cecece",
"aj c #cfcfcf",
"ak c #d0d0d0",
"al c #d1d1d1",
"am c #d2d2d2",
"an c #d4d4d4",
"ao c #d5d5d5",
"ap c #d8d8d8",
"aq c #d9d9d9",
"ar c #dadada",
"as c #dbdbdb",
"at c #dddddd",
"au c #dedede",
"av c #dfdfdf",
"aw c #e0e0e0",
"ax c #e1e1e1",
"ay c #e2e2e2",
"az c #e5e5e5",
"aA c #e6e6e6",
"aB c #e7e7e7",
"aC c #e8e8e8",
"aD c #e9e9e9",
"aE c #eaeaea",
"aF c #ebebeb",
"aG c #ededed",
"aH c #eeeeee",
"aI c #efefef",
"aJ c #f0f0f0",
"aK c #f1f1f1",
"aL c #f2f2f2",
"aM c #f3f3f3",
"aN c #f4f4f4",
"aO c #f5f5f5",
"aP c #f6f6f6",
"aQ c #f7f7f7",
"aR c #fafafa",
"aS c #fbfbfb",
"aT c #fcfcfc",
"aU c #fdfdfd",
"aV c #fefefe",
"aW c #ffffff",
/* pixels */
"..................................................................",
"..................................................................",
"..................................................................",
"...................................X.q............................",
"...........................aaWaWaWaWaWaWaWaP......................",
"..........................aBaWaWaWaWaWaWaWaW.e....................",
"........................aWaWaWaWaWaWaWaWaWaWaW#C..................",
".......................CaWaWaWaWaWaWaWaWaWaWaWaW..................",
".....................oaWaWaWaWaWaWaWaWaWaWaWaWaW..................",
"....................#yaWaWaWaWaWaWaWaWaWaWaWaWaW.O................",
"....................#qaWaWaWararaWaWaWaWaSaWaWaWak................",
"....................#JaWaW#t....aWaWaW.S....#v#jaW................",
"....................#BaW.C.......7#3aW.......##Laf................",
"......................aW.C......#1#AaW......#maJ.V................",
"........ag.Y..........a#aW#p..aQaq...ZaWajagaWaW..................",
".......gaWaWaK..........aWaWaWaW.4....aWaWaWaW.u.............x.0..",
"......aWaWaWaWaWa#.n....#o#HaHaWaE#M#MaWaWaW.g..........aVaWaWaW#G",
"......aWaWaWaWaWaWaW.......A.BaWaWaWaWaWaWaO.z.......haJaWaWaWaWaK",
"..........#r#v#saWaWaWaW.##0.Q.P#6.A.4.v...t#a..aDaWaWaWaWaWaWaW.w",
".................h.YaWaW#0aW.G.i.z.i.5.C.0..#WaUaWaWaT#F.p.p.p.p..",
".......................hal#haWac.N#D#e.6ataWaWaW..................",
"........................#G#EaWaWaWaWaWaWaWaW#8.b..................",
"............................#2araWaWaWaW.5........................",
".......................vaMaWaWaW.H.2#naDaWaW.d....................",
"......aWaWaW.YapaWaWaWaWaWaW.U.........5aWaWaWaWaWao.s............",
".....AaWaWaWaWaWaWaWaWaWax#b............#laAaWaWaWaWaR#o....aWaR..",
"........#QaWaWaW.I.............................iaWaWaWaWaWaWaWaW.E",
"........#aa#aa.J....................................aeaWaWaW.S....",
"..................................................................",
"..................................................................",
"..................................................................",
"..................................................................",
".................................................................."
};
