/* XPM */
static char *nuclear[] = {
/* width height num_colors chars_per_pixel */
"    33    33       50            1",
/* colors */
". c #808000",
"# c #040404",
"a c #87800d",
"b c #ccb864",
"c c #d2c519",
"d c #c3be35",
"e c #444f09",
"f c #bab430",
"g c #dfd138",
"h c #847f2c",
"i c #645a06",
"j c #eae66a",
"k c #fcfc43",
"l c #342704",
"m c #979915",
"n c #78780a",
"o c #fcfa85",
"p c #e4dd54",
"q c #a7a233",
"r c #d4ca35",
"s c #fbfb64",
"t c #848c1c",
"u c #242104",
"v c #ffff00",
"w c #6e680a",
"x c #f9f84d",
"y c #b9ae4b",
"z c #e9d45e",
"A c #9f942c",
"B c #3f3b04",
"C c #c4c14d",
"D c #aca84a",
"E c #a9990f",
"F c #fcfca4",
"G c #ffff00",
"H c #d4b434",
"I c #998404",
"J c #797524",
"K c #fcfb7c",
"L c #544004",
"M c #a8ac1c",
"N c #d4cc6c",
"O c #575204",
"P c #e3de3b",
"Q c #9c944c",
"R c #94912f",
"S c #98891e",
"T c #170e04",
"U c #d4c84c",
"V c #ffff00",
/* pixels */
"GGGGvGGGGvvGvvvvvvGvvvvGGGGvGvvGG",
"vGvvvGGvvjvGGGGGvvvvGvvvGkvGGGGGG",
"GvGvGGGG##mvGGvvGGGGGGGGT#xGGGGGG",
"vGGvGGk####vGGGGvGvGGGGG###pGGGGG",
"GGGGvv#####pGGGGGvGGvGG#####KGGGv",
"vGGvv#######vGvvGGvGvGs######KvGG",
"vGGGB#######pGGGvGGvGv########GGv",
"GvGk#########kGvGGGvGs########BGv",
"GGvT#########eGvGGGGv##########vv",
"vGG###########GvGGGvi##########KG",
"vGs###########AGGGGv############G",
"vv#############vGGG.############v",
"vG############V####Gl###########k",
"vG###########sT#####G###########k",
"Gv###########v######kA##########P",
"Gk###########G######ys##########P",
"vGGvGGGGGGGvGv######kVGvvvvvGGvvv",
"GGGGGGGGGvvGvG######GvGvvGGvGGGGG",
"GGGGGGGvGGvGvGvT###GGGGGGGvvvGGGv",
"vGGGGGvvGGGGGGkskkksGvvGvGvGGGGvG",
"GGGGGGGGvvvvvv######GvGvvGvvGGGvv",
"GGGvGGGGGGGvvs######svGvGGGGGvGGG",
"GGvvGGGvGvvGG########kGGGvGGGGGGG",
"GGvvvGGvGGvGO########uvGGGGGGGGvv",
"GGGvvGvvGGGk##########kGGvvGGGGGG",
"GGvGGGGGGGG############vGvvGvGGvG",
"vGGGvvvvvGs############kGGGvGGGGG",
"vGGvvGGGGv##############GGGGvvGGG",
"vGvGGGGGGx##############GvGGGvvvG",
"GGGvGGvGvo##############MGGvvGGGv",
"vGGGGvGvGvvx##########wkvGGGGGGGG",
"vGGvGGGvGvvvGvGxoqpGGGvvGvGvGvGGG",
"vGGGvGGvGvGvGGGGGGGGGGvGvGGGGGGGG"
};
