/* XPM */
static char *target[] = {
/* width height num_colors chars_per_pixel */
"    20    16        4            1",
/* colors */
". c #c0c0c0",
"# c #ff0000",
"a c #0000ff",
"b c #ffffff",
/* pixels */
".......######.......",
".....##########.....",
"....####bbbb####....",
"...###bbaaaabb###...",
"...##bbaaaaaabb##...",
"..###baabbbbaab###..",
"..##baabb##bbaab##..",
"..##baab####baab##..",
"..##baab####baab##..",
"..##baabb##bbaab##..",
"..###baabbbbaab###..",
"...##bbaaaaaabb##...",
"...###bbaaaabb###...",
"....####bbbb####....",
".....##########.....",
".......######......."
};
