/* XPM */
static char *biological[] = {
/* width height num_colors chars_per_pixel */
"    33    33        2            1",
/* colors */
". c #ff0000",
"# c #ffff00",
/* pixels */
"#################################",
"############.####################",
"###########.##########.##########",
"##########.############.#########",
"##########.#############.########",
"#########.##############.########",
"#########.##############.########",
"#########.##############..#######",
"#########.##############..#######",
"########..##############..#######",
"#########..#############..#######",
"#########..###......###...#######",
"#########...#...###..#...########",
"#########....#########...########",
"#######.......######.......######",
"#####............#...........####",
"####.............#............###",
"###..######.....##......#####..##",
"##..######.#...####...########..#",
"##.#######.##..####..##.#######.#",
"#.########.####.##.####.########.",
"#.########.###......###.#########",
"###########.###....###..#########",
"###########..##....##..##########",
"############..#....#..###########",
"#############.#....#.############",
"###############....##############",
"###############.....#############",
"##############......#############",
"#############...##...############",
"#############...###...###########",
"###########...######...##########",
"#######.....##########.....######"
};
