/* XPM */
static char *bomber[] = {
/* width height num_colors chars_per_pixel */
"    28    28       38            1",
/* colors */
". c #000000",
"# c #cccccc",
"a c #dbdbdb",
"b c #e8e8e8",
"c c #f8f8f8",
"d c #ffffff",
"e c #d1d1d1",
"f c #dddddd",
"g c #d4d4d4",
"h c #e3e3e3",
"i c #d5d5d5",
"j c #eaeaea",
"k c #eeeeee",
"l c #d0d0d0",
"m c #f2f2f2",
"n c #d9d9d9",
"o c #ededed",
"p c #d8d8d8",
"q c #f7f7f7",
"r c #e1e1e1",
"s c #fdfdfd",
"t c #d3d3d3",
"u c #e2e2e2",
"v c #f1f1f1",
"w c #e4e4e4",
"x c #f3f3f3",
"y c #d6d6d6",
"z c #e6e6e6",
"A c #f4f4f4",
"B c #dfdfdf",
"C c #f5f5f5",
"D c #ececec",
"E c #f6f6f6",
"F c #efefef",
"G c #949494",
"H c #7f7f7f",
"I c #8b8b8b",
"J c #ffec00",
/* pixels */
"............................",
"............##..............",
"............w#..............",
".............k#.............",
".............A#.............",
".............c##............",
"..............###...........",
"..............h##...........",
"..............ot#dxb........",
"..w#..........vr##..........",
"..sf.........###n#...H......",
"...v#..........mu##.........",
"..dF###........Ez###........",
"..###....ddDBp#########.....",
"..##.........ddddqjhyl#e#...",
"..##...........#####dddECd..",
"............######f..G......",
"..............####..J.......",
".............####...J.......",
"............###ag#H.........",
"............####.dI.........",
"............##..............",
"...........###..............",
"...........##i..............",
"...........#................",
"..........#l................",
"............................",
"............................"
};
