/* XPM */
static char *folder[] = {
/* width height num_colors chars_per_pixel */
"    30    30      107            2",
/* colors */
".. c None",
".# c #908e88",
".a c #91908a",
".b c #93918b",
".c c #96958e",
".d c #979790",
".e c #9c9a93",
".f c #a3a19b",
".g c #a4a39c",
".h c #a7a69f",
".i c #a7a79f",
".j c #a9a7a0",
".k c #aaaaa2",
".l c #abaaa2",
".m c #adaba4",
".n c #adaca4",
".o c #adada4",
".p c #adadad",
".q c #aeaea6",
".r c #afafa7",
".s c #b2b0a9",
".t c #b4b2aa",
".u c #b4b2ab",
".v c #b5b5b5",
".w c #b6b4ad",
".x c #b6b6ad",
".y c #b7b5ad",
".z c #b9b9af",
".A c #b9b9b0",
".B c #babab1",
".C c #bcbcb3",
".D c #bcbcbc",
".E c #bdbdb4",
".F c #bebebe",
".G c #bfbdb5",
".H c #c0c0b6",
".I c #c1bfb6",
".J c #c3c3b9",
".K c #c3c3ba",
".L c #c4c4ba",
".M c #c5c5c5",
".N c #c7c7bd",
".O c #c9c9c7",
".P c #cacac0",
".Q c #cbcac1",
".R c #cccccc",
".S c #cdcdc2",
".T c #cecec4",
".U c #cecec5",
".V c #cfcfc7",
".W c #d1d1ca",
".X c #d3d3c8",
".Y c #d7d7cc",
".Z c #d7d7d1",
".0 c #d8d8d5",
".1 c #d9d9ce",
".2 c #d9d9d7",
".3 c #dadad1",
".4 c #dadada",
".5 c #dbdbd0",
".6 c #dbdbd6",
".7 c #dbdbda",
".8 c #dcdcd2",
".9 c #dcdcd4",
"#. c #ddddd6",
"## c #deded5",
"#a c #deded7",
"#b c #dededc",
"#c c #dfdfd4",
"#d c #e0e0d5",
"#e c #e0e0df",
"#f c #e1e1d5",
"#g c #e1e1d6",
"#h c #e4e4d9",
"#i c #e5e5da",
"#j c #e6e6db",
"#k c #e6e6df",
"#l c #e7e7dc",
"#m c #e7e7dd",
"#n c #e7e7e0",
"#o c #e8e8e0",
"#p c #e9e9e5",
"#q c #ebebea",
"#r c #ecece0",
"#s c #edede2",
"#t c #eeeee2",
"#u c #efefe5",
"#v c #efefee",
"#w c #f0f0e4",
"#x c #f0f0e5",
"#y c #f0f0e6",
"#z c #f0f0e7",
"#A c #f1f1e5",
"#B c #f1f1e6",
"#C c #f1f1e7",
"#D c #f2f2e6",
"#E c #f2f2e7",
"#F c #f2f2e9",
"#G c #f2f2ea",
"#H c #f3f3e7",
"#I c #f3f3e8",
"#J c #f3f3e9",
"#K c #f3f3ea",
"#L c #f3f3ec",
"#M c #f4f4eb",
"#N c #fefefc",
"#O c #fffffe",
/* pixels */
"............................................................",
"............................................................",
"............................................................",
"............................................................",
"............................................................",
"............................................................",
"............................................................",
".................................M#D#D#D#D..................",
"...........T#D#D.........D#a#D#D#D#D#D#D.1.H.......b........",
".......K#D#D#A#B#B#y#y#u#B#B#G.6.p.....j.Q.Q.Q.Q.Q.n........",
"........#D#H#E#j#m.9.v.......G.Q.Q.Q.Q.Q.Q.Q.Q.Q.Q.y........",
"........#A.3#..W#v...s.G.Q.Q.Q.Q.Q.Q.Q.Q.Q.Q.Q.Q.Q.y........",
"........#r.O#N#O#N.G.Q.Q.Q.Q.Q.Q.Q.Q.Q.Q.Q.Q.Q.Q.Q.I........",
".........z.x#N#N#N.I.Q.Q.Q.Q.Q.Q.Q.Q.Q.Q.Q.Q.Q.Q.Q.I........",
"...........S.J#N#N.I.Q.Q.Q.Q.Q.Q.Q.Q.Q.Q.Q.Q.Q.Q.Q.y........",
"..........#l.E#N#N.I.Q.Q.Q.Q.Q.Q.Q.Q.Q.Q.Q.Q.Q.Q.Q.n........",
"...........o.5#N#N.I.Q.Q.Q.Q.Q.Q.Q.Q.Q.Q.Q.Q.Q.Q.Q.n........",
"............#j#q#N.y.Q.Q.Q.Q.Q.Q.Q.Q.Q.Q.Q.Q.Q.Q.I.e........",
".............x#e#N.y.Q.Q.Q.Q.Q.Q.Q.Q.Q.Q.Q.Q.Q.I.I.g........",
"...............V.4.n.Q.Q.Q.Q.Q.Q.Q.Q.Q.I.I.I.y.e............",
"..............#d.4.h.I.I.Q.Q.Q.I.I.I.y.n....................",
"...............A.0.f.y.I.I.I.y.y.y.n.g......................",
".................5.a.y.y.n.n.g..............................",
".................q.#.n.n.e..................................",
"...................e........................................",
"............................................................",
"............................................................",
"............................................................",
"............................................................",
"............................................................"
};
