/* XPM */
static char *missile[] = {
/* width height num_colors chars_per_pixel */
"    33    33        3            1",
/* colors */
". c #ffff00",
"# c #ff0000",
"a c #ff0080",
/* pixels */
"................##...............",
"................##...............",
"...............####..............",
"...............####..............",
"..............######.............",
"..............######.............",
"..............######.............",
"..............######.............",
"..............######.............",
"..............######.............",
"..............######.............",
"..............######.............",
"..............######.............",
"..............######.............",
"..............######.............",
"..............######.............",
"..............######.............",
"..............######.............",
"..............######.............",
"..............######.............",
"..............######.............",
"..............######.............",
"..............######.............",
"............aa##aa##aa...........",
"............aa##aa##aa...........",
"............aa##aa##aa...........",
"...........aaa##aa##aaa..........",
"...........aaa##aa##aaa..........",
"..........aaaa##aa##aaaa.........",
"..........aaaa##aa##aaaa.........",
"..........aaaa##aa##aaaa.........",
"..........aaaa##aa##aaaa.........",
"..........aaaa##aa##aaaa........."
};
