/* XPM */
static char *navmap[] = {
/* width height num_colors chars_per_pixel */
"   170    85       32            1",
/* colors */
". c #050a0a",
"# c #06062b",
"a c #020235",
"b c #00003c",
"c c #122f05",
"d c #2a2d1d",
"e c #030244",
"f c #0f0c4e",
"g c #312d4f",
"h c #1c4701",
"i c #274d05",
"j c #374b25",
"k c #394655",
"l c #433b31",
"m c #443c50",
"n c #565a2d",
"o c #615a55",
"p c #6d6d8c",
"q c #7f8075",
"r c #867d3c",
"s c #857763",
"t c #877f8a",
"u c #a3956a",
"v c #c8b479",
"w c #dcc77d",
"x c #a9a59d",
"y c #bcc8b7",
"z c #cdbb8a",
"A c #e7d69b",
"B c #d6d6d3",
"C c #e5e4db",
"D c #f6f6f1",
/* pixels */
"bbbbbbbbbbbbbbbbbbbbbbbbbbbbbbbbbbbbbbbbbbbbbbbbbbbbbbbbbbbbbbbbbbbbbbbbbbbbbbbbbbbbbbbbbbbbbbbbbbbbbbbbbbbbbbbbbbbbbbbbbbbbbbbbbbbbbbbbbbbbbbbbbbbbbbbbbbbbbbbbbbbbbbbbbb",
"bbbbbbbbbbbbbbbbbbbbbbbbbbbbbbbbbbbbbbbbbbbbbbbbbbbbbbbbbbbbbbbbbbbbbbbbbbbbbbbbbbbbbbbbbbbbbbbbbbbbbbbbbbbbbbbbbbbbbbbbbbbbbbbbbbbbbbbbbbbbbbbbbbbbbbbbbbbbbbbbbbbbbbbbbb",
"bbbbbbbbbbbbbbbbbbbbbbbbbbbbbbbbbbbbbbbbbabbba###.##.#aaabbbaa##.#.#.##.###abbbbbbbbbbbbbbbbbbbbbbbbbbbbbbbbbbbbaabbbbbbbbbbbbbbbbbbbbbbbbbbbbbbbbbbbbbbbbbbbbbbbbbbbbbbbb",
"bbbbbbbbbbbbbbbbbbbbbbbbbbbbbbbbbbbbbbbb#####amoxsoktpo#......gpppkxxpxpxs#.###bbbbbbbbbbbbaaabbbbbbbbbbbbbbbbb#.####bbbbbbbbbbaa.##aabbbbbbbbbbbbbbbbbbbbbbbbbbbbbbbbbbbb",
"bbbbbbbbbbbbbbbbbbbbbbbbbbbbbbbaaabbbb##oDpoDusoxDDDDCABBxBBBBDDDDDDDDDDDDxxByuabbbbbbbbbba###.##abbbbbbbbbbbbaBDDBoxabbbafabbbapoxp###abbbbbbbbbbbbbbbbbbbbbbbbbbbbbbbbbb",
"bbbbbbbbbbbbbbbbbbbbbbbbbbbba##.g##a###mBzjxDDDDonsgbayDDDDDDDDDDCCBCCyyBCCDxegfbbbbbbbbbagDDDopAoabbbbbbbbbbb#ggffef#bbeox#aabbxDCBDBl###aabbbbbbbbbbaa#abbbbbbbbbbbbbbbb",
"bbbbbbbbbbbbbbbbbbbbbbbbbbb#ggdxDCgg#xDBpof#pCDDuxfduCuyBDDBCBBBBBBCBBCCCBxDDgaabbbbbbbbbb#gDCppDxebbbbbbbbbbbb#.gg#gfabbe#agbbaaee#yoBogggabbbbbbbbba#mggbbbbbbbbbbbbbbbb",
"bbbbbbbbbbbbbbbbbbbbbbbbbbggDDDByfyygDBBppDo.#pCf##a.xg.#xuxBDCBBCBBBBDByyCCg#bbbbbbbbbbbbb.#.#.#aabbbbbbbbbbbbf#CDyBpabbeamBk##axDDCDBDDDDoeeeeeebbeaxDDyeaebbebbbbbbbbbb",
"bbbbbbbbeeeebeebabbbeeeeeauullj.#f###..##roggdb##maaa#aaa#.uvyCBBBBBBBDsmndd#bbbbbbbbbbbbbbebeeebbbbbebbbbbbbfgxj...##.#emgglgnic..........#aab####fegg...aggbeeeeeeebbebb",
"feebbbbe#gl#gmmgefeeeeebge#.f#AooAvzumuoon#muvvuuAooogabbbagnoDCBCCBDDBoszrabbbbbbbbbbbbbbbeebeed#ooeebfeeebegmrgpebbbhc#unjjhchcicch.chccccccciiio####djhinl#c#.#ebeeebfa",
"g###ebebdljijnnnol#d.#..dd##movfgofoooa#uu#mmsug#usAAm#g#bbaunyDBCDDCymlmgmgfbebbbbbbbbbbbbe#iddcjrud#no#eegaa#afumc.aclgc.ccihhcnnjiccd.cccccccchuiciccc.ccchhchcd#.dd.md",
"o.ioaeb##.cc...cliiciinndiinllddrl#ddlgnnxouuuoa#g#uuoosobbad.vCDBysl..#ab###gdbbbbbbbbbbeefihic.c.dccldc#drhcic..jicmisgcccciiccddccdcccdcd.ddcc.lc.cccldcc.ccccchcccdcjc",
"g#lm#madchcccjd..cccdlmslc.n#cc.jccc.dn.dosmoo##sg#mvwmmfbbe#dCDDsn###eebe#ccodbbbbbbbbba##dhcc#dlc.cc##.chjciccihch.nddccchcihcchc.ccdc.cccccchc.cc.icdlnd..ccci.c.cchcid",
"abfa#mf#chchhnjnjcljccccc.dccccmj.dc.ccccn##fgfavd#aooobabbbbgBAxsdabebbbbfbbfebbbbbbbbmuiihdlebcicccd#ciccccccch.dccc.ccicccciciihiccccocccicccciiicccdjlnc.ch.d.#.icccgd",
"bbabeabno.id..cnn#olijcd.hdch.cmi.ddddccdffebabaonjnfboafbbbb#.ldobbbbbbbbbebbbbbbebebamumcddd#fnggnihdcihccciihicolc.ccdjih.ccchchchcccoiccchccccciihhccldchhdbfcdc.d#bee",
"bbbbbbbfoedccd##eeaf#jiicccicchiccclldd.daeeeebegdljd.ddbeabbbea##ebbbbbbbbbbbbbeemcoebbaaliccefgdlnichcchhicchhihlncihcddccichiciccihch.chc.ciichccl.c..###d#eggic#ebeebb",
"bbbbbbfgaglld.efbbebf#.jnc.iiiiicilci.chcccd#ee#f.ddccdi.ekebbbbbbbbbbbbbbbbbbbeeasdleeee#mxcgb#hhhcccihcccicjcciccchiicchcciiiihhhiinicidccdcccchicdc.ffeeeeeaiihafbeebbb",
"bebbgbgubfd#fbabbbbbbfeaih.ciciiciich.cdccchcc#fdcdddhclcjo#ebbbbbbbbbbbbbbbbbbe#chdcaaf#ldo#ocdhhcccchdhcc..cc.cc.cc.ccccccciiicicicdicdnc.hhc.c.hichdoobeeee#cccbb#bbbbb",
"aaa#gf#dbbaaeeebbbbbbb#agic.hc.chdhccchcccccic.ldcccc.cdchd.febbbbbbbbbbbbbbbbbeddacica.hccddidc.ccchcccddljjcljdc.ljj..dondciichc.hc.ichjc.hhiicc.dihilaaaebbggd#eebbbbbb",
"b#b#eebbbbeebbbbbbbbbbfefdcohccidodccccccicc.chiccicccc.#dcj#ebbbbbbbbbbbbbbbbbeeefo#d.hcc.i.ccciccccc.cdslromusumoxusd.doogcc..nolccccciiccddcicihhidcc##bebefk#bbbebbbbb",
"bbbbbbbebbbbbbbbbbbbbbbbefeicddidoool.cccicxoliiiiic#iifee#dbebbbbbbbbbbbbbbbbbbebbgdchccii...c.iicdjdcc.luAAuuuwuAAuxuououscdod.jo.c......ccdhcchihcih.f##eegc#eebbbbbbbb",
"bbbbbbbbbbbbbbbbbbbbbbbbbefhu..h..loodcciiclgceciciici#cneeebbbbbbbbbbbbbbbbbbbbeeeebhcc.hih.iii..cdfjncclozlmyAAggunzwAvixj.oxu.rzdruuuouj.dhi.hhiioi.fofbe##bbebbbbbbbbb",
"bbbbbbbbbbbbbbbbbbbbbbbbbbeildj.ccnxndchicccb.jdbchidakffbbbebbbbbbbbbbbbbbbbbbbechfehd..fd#grchcic#ee#e.icd#gvAA.zAAovuvluzc.jd.cvxAv.uAAulcc.cciiiicafiid##abbbbbbbbbbbb",
"bbbbbbbbbbbbbbbbbbbbbbbbbef.cuod.lzocdcciihin#gnjhdilefeabbbbbbbbbbbbbbbbbbbbbbbe#cudnombof#ddecch.bacbeecc..aowAdjvvjol..in..nBBAAzAAwAAugdhcnhhhieeeefaa#baebbbbbbbbbbbb",
"bbbbbbbbbbbbbbbbbbbbbbbbbbedjsv#doh..ldcciiiiiiicnkba#bbbbbbbbbbbbbbbbbbbbbbbbbbe#iln.fga.#eefgoagniuvsl..c..bfuAAAonldulddvAAAAwAAoouAwulcchnp..cefeefgnaeebbbbbbbbbbbbbb",
"bbbbbbbbbbbbbbbbbbbbbbbbbbeddco.jnu.cddcciccihhchnfebbbbbbbbbbbbbbbbbbbbeebbbbeb#ao##aogmoobalemn#d.doouuucso#.uonvAAuoozCvvvwuluvDud.uddicc.ncefiheeachjeabbbbbbbbbbbebbb",
"bbbbbbbbbbbbbbbbbbbbbbbbbbbe#cBolou.nddcchcihcccicebbbbbbbbbbbbbbbbbbbbe#abbbbbbaagloozouuo#aabbeeeab##uxuslnuuAvroyrmud.uvsuvsszljdjc...cdcccaeeccec#no#bebbbbbbbbbbb##eb",
"bbbbbbbbbbbbbbbbbbbbbbbbbbbbe#rvuc.ddcdcchccccc.eeebbbbbbbbbbbbbbbbbbbbbbbbbbbbb#ouAujuuwAws#abg##abb.guvuouduAAvzdd.oum.cuzuldlod..hc.cichiicceeelin##e.#ebbbbbbbbbbbbbbb",
"bbbbbbbbbbbbbbbbbbbbbbbbbbbbba#ag..ossdldccichdfeebbbbbbbbbbbbbbbbbbbbbbbbbbbbbaeodmuuuuAwzwuzmsAAvcdBAAuuvvugwCvruAuuoodc.nsoonc.idhiccc.cc.cioeefa#ebbebbbbbbbbbbbbbbbbb",
"bbbaebbbbbbbbbbbbbbbbbbbbbbbbbasAjcdvo.c#esoefj.ebbbbbbbbbbbbbbbbbbbbbbbbbbbbba#fvAuuuuuuuuuvwAAvADvuuruuuwAsaunjAzrvuldzv...dn#ccd....cccccicdobbbbebbbbbbbbbbbbbbbbbbbbb",
"be##ebebbbbbbbbbbbbbbbbbbbbbbbboudccouoofbeeefd.gebbbbbbbbbbbbbbbbbbbbbbbbbbbb#AAAuvAvuAwvuuAuuAvuAvuooAxurAu#o.duuAvcwAs.cdjd..c..d.iiiccc.ccceeebbbbbbbbbbbbbbbbbbbbbbbb",
"bbbeba#ebbbbbbbbbbbbbbbbbbbbbbbbgg.hdxo#ebebbbaeofebbbbbbbbbbbbbbbbbbbbbbbbbb#oAwvzwwvwvAuzvwwAvuuuvvv#mAAvzuAomf#gogoAv..ljdnlnnhih.cccc.iic#ea#ebbbbbbbbbbbbbbbbbbbbbbbb",
"bbbbbb#bbggbbbbbbbbbbbbbbbbbbbbbebf#h.c#fbeefomac#beeebbbbbbbbbbbbbbbbbbbbbbbmAAzuvuvuvvuuuovwouwvuuuAlezAAAuAAAAz###ksu.cddnjnzohnd.hchcccdaeea#ebbbbbbbbbbbbbbbbbbbbbbbb",
"bbbbbeeae#fbbbbbbbbbbbbbbbbbbbbbbbeaiicdff.ikkgaaimfbbfbabbbbbbbbbbbbbbbbbbbb#zAvvwAuzAwuuuuAulvvvvuvAo#grvwwwuAAmabea#euvddiiofb.jichicfeaeeeasbbbbbbbbbbbbbbbbbbbbbbbbbb",
"bbbbe#abbbbbbbbbbbbbbbbbbbbbbbbbbbee#cidnuhi#ebec#dcccofgbbbbbbbbbbbbbbbbbbbb#wAwAuvzAwAuAwAAwuvuuvuvAvg.drzAAAAf#abbbbbvzn.c#faf#dccicc#ceebbgobbbbbbbbbbbbbbbbbbbbbbbbbb",
"bbbaf#bbbbbbbbbbbbbbbbbbbbbbbbbbbbbeefmj.cch#ffebebeee#ay#bbbbbbbbbbbbbbbbbbamvusuzAvvvosuAAwAAyvuwAAAxvfouwAu###bbbbbbennu.afbaefmadccdlfebbbocebbbbbbbbbbbbbbbbbabbbbbbb",
"bbbbbbebbbbbbbbbbbbbbbbbbbbbbbbbbbbbbbeeeb.dhnlfbbeebeeaeabbbbbbbbbbbbbbbbbbaooc...o.uusjnsrroodorzuno..#fods.abbbbbbbbe#sx#aeaeafe#nllcc#eebbbnbebbbbbbebabbbbbbe#abbbbbb",
"bbbbbbb#bbbbbbbbbbbbbbbbbbbbbbbbbbbbbbbbeeef#jfaeeggo#ebfebbbbbbbbbbbbbbbbbbbucchc.....dd....cd...#d.dhcuAoa#fbbbbbbbbbb#iofebbbed#oggoqc#ebbbfzdaebbbbba##ebbbbbbbebbbbbb",
"bbbbbba#bbbbbbbbbbbbbbbbbbbbbbbbbbbbbbbbbbebeml#mgjnucd#dbeaabbbbbbbbbbbbbbbbfanccccccccccccccicihdd.hh.domuuo#bbbbbbbbbaand#ebbbeedlaou#ebbe#bpcceebgbb#beebbbbbbbbbbbbbb",
"bbbbbbebffbbbbbbbbbbbbbbbbbbbbbbbbbbbbbbbbbbaalldi...hiih#fkfbbbbbbbbbbbbbbbbbbxiihdhh.dhhchcciccihccicccjuwz##bbbbbbbbaga#h.ebbbeeamda#bbeeedggccebfobeeebbbbbbbbbbbbbbbb",
"bbbbbbbbglebbbbbbbbbbbbbbbbbbbbbbbbbbbbbbbbbbeffedi.lhhcccjukeebbbbbbbbbbbbbbbaf#hcdcde#dddcccccchichcd..wAvofebbbbbbbbfoaed#eebbea#fcaebee#.om#a.ae##bbbbbbbbbbbbbbbbbbbb",
"bbbbbbbbbfbbbbbbbbbbbbbbbbbbbbbbbbbbbbbbbbbbbaeefcihchc..chii.ebbbbbbbbbbbbbbaebb.beeeeeeedchccccccihcougruo#abbbbbbbbabmbeeeebbbbdnfldeeeeccfefe#ab#ebbbbbbbbbbbbbbbbbbbb",
"bbbbbbbbbbbbbbbbbbbbbbbbbbbbbbbbbbbbbbbbbbbbbbead.cicci.chhhiifeeeebbbbbbbbbbbbbeeeeeebb#fncccccdhdccclxxj..bbbbbbbbbbb#oababbbbbbgnindebc.ice.##mfeeeeebbbbbbbbbbbbbbeg#b",
"bbbbbbbbbbbbbbbbbbbbbbbbbbbbbbbbbbbbbbbbbbbbbee.cccchhciicicch#lobeeeebbbbbbbbbbbbbbbbeedfsdccdchcc.cldlnceebbbbbbbbbbeblebbbbbbbbbfgc#eediicfiigogc.bggbeebbfebbbbbbbedab",
"bbbbbbbbbbbbbbbbbbbbbbbbbbbbbbbbbbbbbbbbbbbbbafg.cicicciiciccihiocd#fbbbbbbbbbbbbbbbbbbbeegndllcc..insoslaebbbbbbbbbbabbebbbbbbbbbbbgdhcgfdc#ehdgagcddjndfbeblgbbbbbbbbeeb",
"bbbbbbbbbbbbbbbbbbbbbbbbbbbbbbbbbbbbbbbbbbbbbemnicichc.hiiciihhhhcccbabbbbbbbbbbbbbbbbbbbbeoxlodluolmonn#ebbbbbbbbbbbebbbbbbbbbbbbbbgani#gaaff#debbf#g.hhcdaed#ebbbebbbbbb",
"bbbbbbeebbbbbbeebbbbbbbbbbbbbbbbbbbbbbbbbbbbbbf#odcciiciiicicccc.dmj.aebbbbbbbbbbbbbbbbbbbbgtmuoosumfoon#fbbbbbbbbbbe#bebbbbbbbbbbbbbfa.cg#kccgdglbefkecic.cfebg#ae#bebbbb",
"bbbbbba#ebbbbe#aebbbbbbbbbbbbbbbbbbbbbbbbbbbbbbamccchhihcciihc.l.rocnaebbbbbbbbbbbbbbbbbbbbaluunosoldddi#bbbbbbbbbbbb#bebbbbbbbbbbbbbbeef##madd.imbbaaebg#aabeeggla#bbbbbb",
"bbbbbbb#bbbbbbaaebbbbbbbbbbbbbbbbbbbbbbbbbbbbbbeamcccchccccchhdn.nlcdebbbbbbbbbbbbbbbbbbbbbansmnonod..cjdebfeeebbbbbbbbbbbbbbbbbbbbbbbbeeb#eeeee#eeozoxaaefbea#ae#abbbbbbb",
"bbbbbbbbbbbbbbbbbbbbbbbbbbbbbbbbbbbbbbbbbbbbbbbafunlnc.hdchjod.cdod#eebbbbbbbbbbbbbbbbbbbbaalc.dlddcoo.omeeac.ebbbbbbbbbbbbbbbbbbbbbbbbbbbbbbeeee.#dnlfamdeebbabbfbebbbbbb",
"gbbeebbbbbbbbbfabbbbbbbbbbbbbbbbbbbbbbbbbbbbbbbbbfcddc.ccnlollodloc#ebbbbbbbbbbbbbbbbbbbbbgwdd.ddddclnid#eennleebebbbbbbbbbbbbbbbbbbbbbbbbbbbbbe#imond.fon.ebbbbbbbalabbea",
"ebe.#ebbbbbbbammbbagfbbbbbbbbbbbbbbbbbbbbbbbbbbbabaaoud.cnmd.lodccdaeebbbbbbbbbbbbbbebbbbbbuouoldi.jldd#bfhndbebbabbbbbbbbbbbbbbbbbbbbbbbbbbbaagonsuoomsn..eebbbbbbefbbbed",
"bbea#ebbbbbbbbaabbbmdeebbbbbbbbbbbbbbbbbbbbbbbbbbbeafAo.doldclgldilae#ebbbbbbbbbbbbe#bbbe#afvusoso.lodafbelncbbo##abbbbbbbbbbbbbbbbbbbbbbbbagfgondlooooooocdfeebbbe.beabbe",
"be##ebbbbbbbbbbebbbeee#ebbbbbbbbbbbbbbbbbbbbbbbbbbb#gAjdlocccdcii.bea#ebbbbbbbbbbbbb#bbbb#aaounovxoilodbeedd#ebofeebbbbbbbbbbbbbbbbbbbbbbbbavusuooooooonAAjcc#ebbbecaebbbb",
"bbaaebbbbbbbbbbbbbbbbb#bbbbbbbbbbbbbbbbbbbbbbbbbbbb#uAndc.cidci###fbbebbbbbbbbbbbbbbebbbeabbgvmouusdon.eebnsfabbabbbbbbbbbbbbbbbbbbbbbbbbbboonoousoodmoousl.c#eebbefbbbbbb",
"beebbbbbbbbbbbbbbbbbbbebbbbbbbbbbbbbbbbbbbbbbbbbbbagDv.d.cciccdffeebbbbbbbbbbbbbbbbbbbbbbbbamAmssoooo#eebbf#abbbbbbbbbbbbbbbbbbbbbbbbbbbbbeldcnuoooonuuuooddoc#eebbbbbbbbb",
"bbbbbbbbbbbbbbbbbbbbbbbbbbbbbbbbbbbbbbbbbbbbbbbbbbamvjolddcccccebbbbbbbbbbbbbbbbbbbbbbbbbbbbbmuorsonnfabbbbebbbbbbbbbbbbbbbbbbbbbbbbbbbbbbecnoloooonsvuulnomic.#bebbbbbbbb",
"b##ebbbbbbbbbbbbbbbbbbbbbbbbbbbbbbbbbbbbbbbbbbbbbbbgudBn.cchcceebbbbbbbbbbbbbbbbbbbbbbbbbbbb##nzusol#ebbbbbbbbbbbbbbbbbbbbbbbbbbbbbbbbbbbbeecdloouoooloumdcc.caebbbbbbbbbb",
"#ceebbbbbbbbbbbbbbbbbbbbbbbbbbbbbbbbbbbbbbbbbbbbbbbajnod.ccicfebbbbbbbbbbbbbbbbbbbbbbbbbbbbbebdvn.nabbbbbbbbbbbbbbbbbbbbbbbbbbbbea##ebbbbbbecchdddaaannnxmldccaeebbbbbbeeb",
"a#ebbbbbbbbbbbbbbbbbbbbbbbbbbbbbbbbbbbbbbbbbbbbbbbb.uAdni.ccaebbbbbbbbbbbbbbbbbbbbbbbbbbbbbbbbadddgebbbbbbbbbbbbbbbbbbbbbbbbbbbbbbbbbbbbbbefc..c#fbba#lnddcc.aeebbbbbbe#bb",
"bebbbbbbbbbbbbbbbbbbbbbbbbbbbbbbbbbbbbbbbbbbbbbbbeahuyvdcdceeebbbbbbbbbbbbbbbbbbbbbbbbbbbbbbbbbeebabbbbbbbbbbbbbbbbbbbbbbbbbbbbbbbbbbbbbbbbea#eeebbbaagnhhhh#eebbbbbbbe#c#",
"bbbbbbbbbbbbbbbbbbbbbbbbbbbbbbbbbbbbbbbbbbbbbbbbbebcdrsn##aebbbbbbbbbbbbbbbbbbbbbbbbbbbbbbbbbbbebebbbbbbbbebbbbbbbbbbbbbbbbbbbbbbbbbbbbbbbbbeebebbbbeeaa##ba#bbbbbbbbbekid",
"bbbbbbbbbbbbbbbbbbbbbbbbbbbbbbbbbbbbbbbbbbbbbbbbbb#nvuvleeeebbbbbbbbbbbbbbbbbbbbbbbbbbbbbbbbbbbbbbbbbbbbe#aabbbbbbbbbbbbbbbbbbbbbbbbbbbbbbbbbbbbbbbbbbeef#nn#ebbbbbbbaoxi#",
"bbbbbbbbbbbbbbbbbbbbbbbbbbbbbbbbbbbbbbbbbbbbbbbbeaoxzvAgbbbbbbbbbbbbbbbbbbbbbbbbbbbbbbbbbbbbbbbbbbbbbbbbbabbbbbbbbbbbbbbbbbbbbbbbbbbbbbbbbbbbbbbbbbbbbbbbfjcbbbbbbbbfgld#b",
"bbebbbbbbbbbbbbbbbbbbbbbbbbbbbbbbbbbbbbbbbbbbbbbbbucovdabbbbbbbbbbbbbbbbbbbbbbbbbbbbbbbbbbbbbbbbbbbebabebbbbafbbbbbbbbbbbbbbbbbbbbbbbbbbbbbbbbbbbbbbbbbbbbbeebbbbbbbou#bbb",
"b#ebbbbbbbbbbbbbbbbbbbbbbbbbbbbbbbbbbbbbbbbbbbbbbasnzsbbbbbbbbbbbbbbbbbbbbbbbbbbbbbbbbbbbbbbbbbbbbeea#bebbbbfmbbbbbbbbbbbbbbbbbbbbbbbbbbbbbbbbbbbbbbbbbbbbbebbbbbbbb..ebbb",
"a#ebbbbbbbbbbbbbbbbbbbbbbbbbbbbbbbbbbbbbbbbbbbbbbbAouugbb#fabbbbbbbbbbbbbbbbbbbbbbbbbbbbbbbbbbbbbbbbeebbbbbbabbbbbbbbbbbbbbbbbbbbbbbbbbbbbbbbbbbbbbbbbbbbbbbbbbbbbbbeeebbb",
"bebbbbbbbbbbbbbbbbbbbbbbbbbbbbbbbbbbbbbbbbbbbbbbbayov##ebjpabbbbbbbbbbbbbbbbbbbbbbbbbbbbbbbbbbbbea#ebbbbbbbbbbbbbbbbbbbbbbbbbbbbbbbbbbbbbbbbbbbbbbbbbbbbbbbbbbbbbbbbebbbbb",
"bbbbbbbbbbbbbbbbbbbbbbbbbbbbbbbbbbbbbbbbbbbbbbbbba#uCx##b#mabbbbbbbbbbbbbbbbbbbbbbbbbbbbbbbbbbbbebabbbbbbbbbbbbbbbbbbbbbbbbbbbbbbbbbbbbbbbbbbbbbbbbbbbbbbbbbbbbbbbbbbbbbbb",
"bbbbbbbbbbbbbbbbbbbbbbbbbbbbbbbbbbbbbbbbbbbbbbbbbbb#xyg#bb.aebbbbbbbbbbbbbebbbbbbbbbbbbbbbbbbbbbbbbbbbbbbbbbbbbbbbbbbbbbbbbbbbbbbbbbbbbbbbbbbbbbbbbbbbbbbbbbbbbbbbbbbbbbbb",
"bbbbbbbbbbbbbbbbbbbbbbbbbbbbbbbbbbbbbbbbbbbbbbbbbbbaa#bbbbebbbbbebbbbebbea#bbbbbbbbbbbbbbbbbbbbbbbbbbbbbbbbbbbbbbbbbbbbbbbbbbbbbbbbbbbbbbbbbbbbbbbbbbbbbbbbbbbbbbbbbbbbbbb",
"bbbbbbbbbbbbbbbbbbbbbbbbbbbbbbbbbbbbbbbbbbbbbbbbbbbbabbaababbbbfmbbea#bbeb#bebbbbbbbbbbbbbbbbbbbbbbbbbbbbbbbbbeebbbbbbbbbbbbabbbbbbbbeebbbbbbbbbbbbbbbbbbbbbbbbbbbbbbbbbbb",
"bbbbbbbbbbbbbbbbbbbbbbbbbbbbbbbbbbbbbbbbbbbbbbbbbbbbbe##fuabbbb#mbbebabbbbebbbbbbbbbbbbbbbbbbbbbbbbbbbbbbbeeee##beeeeeebbbbeeeeeeeeee##aeeaaeeeeeeeeeeeeeeebbbbbbbbbbbbbbb",
"bbbbbbbbbbbbbbbbbbbbbbbbbbbbbbbbbbbbbbbbbbbbbbbbbbbeb#fBooobbbbbbbbbebbbbbbbbbbbbbbbbbbbbbbbbbbbbbbbeeebeb###.bg......#abeb#.........fk...e#............#.#aeeeeebbbbbbbbb",
"bbbbbbbbbbbbbbbbbbbbbbbbbbbbbbbbbbbbbbbbbbbbbbbbbaa#.#xpd#gbbbbbbbbbbbbbbbbbbbbbeeeeeeeeeeeeeeeeeeee#.#a#.ol#oxDoooooxofb#.#uoooopotgyDkgoBxooooosoomoosokk#.....abeeeebbb",
"bbbbbbbbbbbbbbbbbbbbbbbbbbeebbbbbbbbeeeeeeeeeeeeemaosyBt.abbbbbbbbbbbbbbbbbbeeeb....................gxm.mpDCyDDDDDDDDDt..#xBDDDDDDDDCDDCCDDDDDDDDDDDDDDDDDDxotopxa.....bbb",
"bbbbbbbbbbbbbbbbebebeeeeba##bbeeeeba#.........#...pDCoBDx#bbbbbbbbbbbbbbbbeb#...xtxxoxxyxxxxyxxxyxxxBDCxCDDDCDCBDyDDBdpxxyDDDCDDCDDCCCCDCCCCDCDDCCyCDCDCCDDDDDDDDBxyyCpabb",
"bbbbbbbbbbbbbebaa##.#....uam.......#xxBBBByxBk.xBxDDDCDDz#bbbeebbbbbbbbba##..yyyDDDDDDDDDDDDDDDDDDDDDDDDDCBBCBBBByxBBxCDDDCBBCBBBBBBBBBBCBCBBBBBBBBBBBBBBBCBCDDDDDDzDyg#bb",
"bbbbbbbbbea##.###.ofxxBCBDCDCBCBBCxeDDDDDDCBDDyDDBxxCxdsfabba###abbbea###.mBCDDDDCCBDBBCDCCBBBBBBCCCCCCCBBCBBCBBBDBCDDDDDDCBBBBCBCBCBBBBBCBBCCCBBBBBBBBBBCBBByxoxts#f#aebb",
"bbbbbbbbbaaoyfxDCCDBCyBDDyyDDDCDDDDBDDCBCCyyDyyByyBBDy...#ba#gfegaea##mBDCDDCDCBBBCBBBCCBBBBBBBBCBBBBBBBCBBBBBBBBCBCDCDCBCBBBCCBCCCBBBBBBBCBBBBCBCBxBCBBBBBDCBCyBDm#x#abbb",
"bbbbbbbbbagBDyxoxDBBBBBBxByBBCBBBBCCDCCBCCCBBBCxaa..aDyppt#.tDxvx...yCyyCDCCBBBBBBBBBBBBBBBBBCBCBBBBCBCBCCBCBBCBBCBBDCDDBDBCBDDBCBBBCBBCBBBBBBBBCBxxBBBBBBByxyBCyCd.ofeebb",
"babeeeeeeaa#epkfyDBCBBBBxxyBBBBBBBBBCBBBBBBBCyyDDDpoaetopg.xxBooukopBDDDCBCDBBBBBCBBBBBBBBBBBBCCDBCCBBBBBCBDCCDCCDDCCDCDBBCDBBBBBBBBBBBBCBBBCCBCBBCBCBBBBBBxxzCyBxm###...b",
"om......#...cyDDCyBBBCBBCCCByBBBDDBBCCBBBBDCBxxyBCDDBalppxxDDCDDDDDDDCCCBBDCBBBBBBBBBBCCCCCBBBBByxyCBBDCBBBxBxxxxxxBBxxBxyBBBBBBByBCCBBBBBBBBBBBCBBBBBBCCCDDDDDBysuxo.xyxo",
"yDByCxoopyCBxyCCDCDDCBCDxBDCBBBBDCBBBBBBBByxxxBBCCBBCCDDDDDDBCCCCCCCCBBBCCBBCBCCCCCBBBBBBBBBBByByByxyBxxyBBBBBBBBBBxyBxxxBCBBBBBBBCBBBBBCBBCCCBBBCBCBBBBCCCCCBBDDBBDCBDDDB",
"tCCBBBBBBCBBBBCCCCDDCCDCCDCCCCCCCCBCBBCCCCBBBCBCCCCCCCCCCCCCCBBCCBBBBCBBBCCCBBBBBBBBBBBBBBBBBBBBBBBBBBBBBBBBBBBBBBBByBBBBBBBBBBBBBBBBBBBBBBBBBBBBBBBCCBBBBBCBBCBCBBCCCCCCy"
};
