/* XPM */
static char *PAC3[] = {
/* width height num_colors chars_per_pixel */
"    30    30       11            1",
/* colors */
". c #000000",
"# c #212121",
"a c #737373",
"b c #9c6300",
"c c #ce9c31",
"d c #ce9c63",
"e c #ceffff",
"f c #efefef",
"g c #ffce63",
"h c #ffff9c",
"i c #ffffff",
/* pixels */
"iiiiiiiiiiiiiiiiiiiiiiiiiiiiii",
"iiiiiiiiiiii..iiiiiiiiiiiiiiii",
"iiiiiiiiiii....iiiiiiiiiiiiiii",
"iiiiiiiiii...a..iiiiiiiiiiiiii",
"iiiiiiiii.g...a.iiiiiiiiiiiiii",
"iiiiiiii........iiiiiiiiiiiiii",
"iiiiiii.....a.iiiiiiiiiiiiiiii",
"iiiiiiicc....iiiiiiiiiiiiiiiii",
"iiiiii.ccc..iiiiiiiiiiiiiiiiii",
"iiiiiicccccdiiiiiiiiiiiiiiiiii",
"iiiii.cccc.iiiiiiiiiiiiiiiiiii",
"iiiiicccc.diiiiiiiii...iiiiiii",
"iiiiccc.ccc...iiii.ggggiiiiiii",
"iii.ccccd......cc.ggg..iiiiiii",
"ii.ccc.dccccccc..ggg.g..iiiiii",
"i..cc.cccccccc.c.ggggeec.iiiii",
".cc..cccccccc.c.ggg...bbc..iii",
"..ccc.ccccccccc.gggg.ecc.cc.ii",
".cccc..ccc....c...e.gcc....ghi",
"...cccc...c....e..eeccc.....hi",
"..#...cccc.ggb.ee..gbbc...hhhi",
"i.#a....cccc....e..cccbb.chhii",
"ii.##.ff.cc.gc.c..g.....b.hhii",
"iii.#.ff..c....cc.cc.gggchhiii",
"iiiiii##iiiii.....ccc...chhiii",
"iiiiii..iiiiiiii..c..a..chiiii",
"iiiiiiiiiiiiiiiiii...f#..iiiii",
"iiiiiiiiiiiiiiiiiiii.f..iiiiii",
"iiiiiiiiiiiiiiiiiiiiif#iiiiiii",
"iiiiiiiiiiiiiiiiiiiiiiiiiiiiii"
};
