/* XPM */
static char *SpySat[] = {
/* width height num_colors chars_per_pixel */
"    30    30        5            1",
/* colors */
". c #000000",
"# c #313131",
"a c #393939",
"b c #b5b5b5",
"c c #ffffff",
/* pixels */
"ccccccccccccccbbbccccccccccccc",
"ccccccccccccccbbbccccccccccccc",
"ccccccccccccbb#a#bcccccccccccc",
"cccccccccccb###a##bccccccccccc",
"cccccccccccb###a##bccccccccccc",
"cccccccccccb###b##bccccccccccc",
"cccccccccccbb##b###ccccccccccc",
"cccccccccccbb##b###ccccccccccc",
"cccccccccccb#bba#b#ccccccccccc",
"cccccccccccb###bb##ccccccccccc",
"..........cb###b###c..........",
"..........cb###b###c..........",
".ccccccccccb###b###c.ccccccccc",
".ccccccccccb###a###c.ccccccccc",
".ccccccccccb###a###c.ccccccccc",
".ccccccccccb###a###c.ccccccccc",
".ccccccccccb###b###c.ccccccccc",
".ccccccccccb###b###c.ccccccccc",
".ccccccccc.b###a###..ccccccccc",
"..........cb###a###c..........",
"cccccccccccb###b###ccccccccccc",
"cccccccccccb###b###ccccccccccc",
"cccccccccccc###b##cccccccccccc",
"cccccccccccb###b###ccccccccccc",
"cccccccccccb###b###ccccccccccc",
"cccccccccccbc##a###ccccccccccc",
"cccccccccccbc##a###ccccccccccc",
"cccccccccccbc##a###ccccccccccc",
"cccccccccccbc##b###ccccccccccc",
"ccccccccccccc##b##cccccccccccc"
};
