/* XPM */
static char *uewr[] = {
/* width height num_colors chars_per_pixel */
"    30    30      171            2",
/* colors */
".. c #000000",
".# c #3f1f00",
".a c #2a2a2a",
".b c #333333",
".c c #000066",
".d c #5f3f1f",
".e c #663300",
".f c #7f5f3f",
".g c #404040",
".h c #4c4c4c",
".i c #505050",
".j c #555555",
".k c #5f5f7f",
".l c #666666",
".m c #6b6b6b",
".n c #7f7f7f",
".o c #00359f",
".p c #003ba4",
".q c #003ea8",
".r c #0000d4",
".s c #0000ff",
".t c #003ecc",
".u c #3333cc",
".v c #0042ab",
".w c #0044ad",
".x c #0047b0",
".y c #004ab3",
".z c #004eb6",
".A c #0050b8",
".B c #0051b9",
".C c #0052ba",
".D c #0053bb",
".E c #0055bd",
".F c #005ac1",
".G c #005dc4",
".H c #005ec5",
".I c #0060c7",
".J c #0062c8",
".K c #0066cc",
".L c #0071d0",
".M c #0073d1",
".N c #0078d2",
".O c #5f009f",
".P c #7f7f9f",
".Q c #108f44",
".R c #309e5d",
".S c #50ad76",
".T c #0080d5",
".U c #0081d5",
".V c #0087d7",
".W c #008ad8",
".X c #008cd9",
".Y c #0092db",
".Z c #0099dd",
".0 c #009cde",
".1 c #01a0c6",
".2 c #11a6ca",
".3 c #00a5e1",
".4 c #00a6e2",
".5 c #00a8e2",
".6 c #00b3e6",
".7 c #00b7e7",
".8 c #00beea",
".9 c #21accd",
"#. c #31b2d1",
"## c #00c0ea",
"#a c #00ccee",
"#b c #00d2f0",
"#c c #00d4f1",
"#d c #00d9f3",
"#e c #00dbf3",
"#f c #00dff5",
"#g c #00e4f6",
"#h c #00e6f7",
"#i c #00f5fc",
"#j c #00f6fc",
"#k c #00ffff",
"#l c #0fffff",
"#m c #15ffff",
"#n c #1effff",
"#o c #33ccff",
"#p c #24ffff",
"#q c #2affff",
"#r c #2dffff",
"#s c #36ffff",
"#t c #7f99b2",
"#u c #60b482",
"#v c #70bc8f",
"#w c #4094ff",
"#x c #41b8d4",
"#y c #51bed8",
"#z c #40ffff",
"#A c #4bffff",
"#B c #5affff",
"#C c #5bffff",
"#D c #61c4dc",
"#E c #71cadf",
"#F c #6affff",
"#G c #78ffff",
"#H c #bf7f1f",
"#I c #dd0806",
"#J c #ff0000",
"#K c #ff1010",
"#L c #cc6600",
"#M c #ff4040",
"#N c #ff5050",
"#O c #ff6060",
"#P c #ff00ff",
"#Q c #ff8000",
"#R c #ffa64c",
"#S c #ffab53",
"#T c #ffaf5b",
"#U c #ffb462",
"#V c #ffb869",
"#W c #ffbd70",
"#X c #fcf305",
"#Y c #ffc277",
"#Z c #ffc67e",
"#0 c #808080",
"#1 c #838383",
"#2 c #8f8f8f",
"#3 c #9f9f9f",
"#4 c #9f9fbf",
"#5 c #aaaaaa",
"#6 c #b2b2b2",
"#7 c #b3b3b3",
"#8 c #b6b6b6",
"#9 c #bfbfdf",
"a. c #90cba8",
"a# c #a0d2b4",
"aa c #a0d3b4",
"ab c #80d0e3",
"ac c #90d6e6",
"ad c #8ae3ff",
"ae c #80ffff",
"af c #87ffff",
"ag c #96ffff",
"ah c #b0dac1",
"ai c #b0e2ee",
"aj c #ff8080",
"ak c #ff9090",
"al c #ffcb86",
"am c #ffcf8d",
"an c #ffd494",
"ao c #ffd99b",
"ap c #ffdda2",
"aq c #ffe2a9",
"ar c #ffe6b1",
"as c #ffebb8",
"at c #c0c0c0",
"au c #c1c1c1",
"av c #c2c2c2",
"aw c #cccccc",
"ax c #d1d1d1",
"ay c #d5d5d5",
"az c #dfdfff",
"aA c #d0e9da",
"aB c #c0e8f1",
"aC c #c7f3ff",
"aD c #d8e0e8",
"aE c #d0eef5",
"aF c #ffc0c0",
"aG c #ffcfcf",
"aH c #e6e6e6",
"aI c #e9e9e9",
"aJ c #e0f4f8",
"aK c #f5f5f5",
"aL c #f0f8f3",
"aM c #f0fafc",
"aN c #fff0f0",
"aO c #ffffff",
/* pixels */
"#6#6#6#6#6#6#6#6#6#6#6#6#6#6#6#6#6#6#6#6#6#6#6#6#6#6#6#6#6#6",
"#6#6#6#6#6#6#6#6#6#6#6#6#6#6#6#6#6#6#6#6#6#6#6#6#6#6#6#6#6#6",
"#6#6#6#6#6#6#6#6#6#6#6#6#6#6#6#6#6#6#6#6#6#6#6#6#6#6#6#6#6#6",
"#6#6#6#6#6#6#6#6#6#6#6#6#6#6aOaO..aOaO#6#6#6#6#6#6#6#6#6#6#6",
"#6#6#6#6#6#6#6#6#6#6#6aOaO..............aO#6#6#6#6#6#6#6#6#6",
"#6#6#6#6#6#6#6#6#6#6aO.caOaOaO......aOaOaO.caO#6#6#6#6#6#6#6",
"#6#6#6#6#6#6#6#6asasas....asas.c.casas..as..as#6#6#6#6#6#6#6",
"#6#6#6#6#6#6#6#6aqaq..aqaqaq...c.c..aqaqaqaqaq#6#6#6#6#6#6#6",
"#6#6#6#6#6#6#6#6apapapapapap...c.c..apapapap..aO#6#6#6#6#6#6",
"#6#6#6#6#6#6#6#6an..ananananan.c.c..ananananan.c#6#6#6#6#6#6",
"#6#6#6#6#6#6#6#6alalalalalalal.c.c..alalalalal..aO#6#6#6#6#6",
"#6#6#6#6#6#6#6aO..alalalalalal.c.c..alalalalal..aO#6#6#6#6#6",
"#6#6#6#6#6#6#6.c..#Y#Y#Y#Y#Y#Y.c.c..#Y#Y#Y#Y#Y...c#6#6#6#6#6",
"#6#6#6#6#6#6aO.c#V#V#V#V#V#V...c.c..#V#V#V#V#V...caOaO#6#6#6",
"#6#6#6#6#6aO.c.c#U#U#U#U#U#U...c.c..#U#U#U#U...caOaO.c#6#6#6",
"#6#6#6#6aOaO..aO#S#S..#S#S#S...c.c..#S#S#S#S#SaO.c.c.c#6#6#6",
"#6#6#6#6aO.c.caO..aO.c.c...c.c.c.c.c.c...caOaO.c.c.c.c#6#6#6",
"#6#6#6#6aO.c.c.c.caO..aO.c.c.c.c.c.c.c.caO.c.c.c.c.c.c#6#6#6",
"#6#6#6#6aO.c.c.c.c.caO....aO.c.c.c.caOaO.c.c.c.c.c.caO#6#6#6",
"#6#6#6#6#6.c.c.c.c.c.c.caO....aO.caO.c.c.c.c.c.c.caO#6#6#6#6",
"#6#6#6#6#6#6aO.c.c.c.c.c.c.caO..aO.c.c.c.c.c.c.c#6#6#6#6#6#6",
"#6#6#6#6#6#6#6.c.c.c.c.c.c.c.caO.c.c.c.c.c.c.caO#6#6#6#6#6#6",
"#6#6#6#6#6#6#6#6.c.c.c.c.c.c.c.c.c.c.c.c.c.caO#6#6#6#6#6#6#6",
"#6#6#6#6#6#6#6#6#6aO.c.c.c.c.c.c.c.c.c.c.caO#6#6#6#6#6#6#6#6",
"#6#6#6#6#6#6#6#6#6#6aO.c.c.c.c.c.c.c.c.c#6#6#6#6#6#6#6#6#6#6",
"#6#6#6#6#6#6#6#6#6#6#6#6.c.c.c.c.c.c.c#6#6#6#6#6#6#6#6#6#6#6",
"#6#6#6#6#6#6#6#6#6#6#6#6#6.c.c.c.c.c#6#6#6#6#6#6#6#6#6#6#6#6",
"#6#6#6#6#6#6#6#6#6#6#6#6#6#6aO.caO#6#6#6#6#6#6#6#6#6#6#6#6#6",
"#6#6#6#6#6#6#6#6#6#6#6#6#6#6#6aO#6#6#6#6#6#6#6#6#6#6#6#6#6#6",
"#6#6#6#6#6#6#6#6#6#6#6#6#6#6#6#6#6#6#6#6#6#6#6#6#6#6#6#6#6#6"
};
