/* XPM */
static char *tiny_blue_led[] = {
/* width height num_colors chars_per_pixel */
"    12    12        6            1",
/* colors */
". c #000000",
"# c #1e90ff",
"a c #708090",
"b c #87ceeb",
"c c #ffffff",
"d c None",
/* pixels */
"dda....adddd",
"d..####..ddd",
"a.bc####.add",
".#cb#####.dd",
".########.dd",
".######b#.ad",
".#####bb#.ad",
"a.###bb#.aad",
"d..####..aaa",
"ddd....ddddd",
"dddddddddddd",
"dddddddddddd"
};
