#define check_xbm_width 7
#define check_xbm_height 10
static char check_xbm_bits[] = {
   0x40, 0x40, 0x60, 0x20, 0x30, 0x10, 0x19, 0x0b, 0x0e, 0x04};
