/* XPM */
static char *tiny_red_led[] = {
/* width height num_colors chars_per_pixel */
"    12    12        6            1",
/* colors */
". c #000000",
"# c #708090",
"a c #ff0000",
"b c #ffa500",
"c c #ffffff",
"d c None",
/* pixels */
"dd#....#dddd",
"d..aaaa..ddd",
"#.bcaaaa.#dd",
".acbaaaaa.dd",
".aaaaaaaa.dd",
".aaaaaaba.#d",
".aaaaabba.#d",
"#.aaabba.##d",
"d..aaaa..#dd",
"ddd....ddddd",
"dddddddddddd",
"dddddddddddd"
};
