#define rightri_width 5
#define rightri_height 7
static char rightri_bits[] = {
   0x01, 0x03, 0x0f, 0x1f, 0x0f, 0x03, 0x01};
